<mxfile host="app.diagrams.net" modified="2021-01-07T12:27:41.508Z" agent="5.0 (Windows NT 10.0; Win64; x64) AppleWebKit/537.36 (KHTML, like Gecko) Chrome/87.0.4280.88 Safari/537.36 Edg/87.0.664.66" etag="kHM-sq-SFJNuIWkuh6hq" version="13.6.5" type="github">
  <diagram name="Member" id="c37626ed-c26b-45fb-9056-f9ebc6bb27b6">
    <mxGraphModel dx="1185" dy="635" grid="1" gridSize="10" guides="1" tooltips="1" connect="1" arrows="1" fold="1" page="1" pageScale="1" pageWidth="1100" pageHeight="850" background="#ffffff" math="0" shadow="0">
      <root>
        <mxCell id="0" />
        <mxCell id="1" parent="0" />
        <mxCell id="EGWmFNi2Vx7on8M2StG6-6" style="edgeStyle=orthogonalEdgeStyle;rounded=0;orthogonalLoop=1;jettySize=auto;html=1;exitX=0.5;exitY=1;exitDx=0;exitDy=0;entryX=0.5;entryY=0;entryDx=0;entryDy=0;" edge="1" parent="1" source="EGWmFNi2Vx7on8M2StG6-1" target="EGWmFNi2Vx7on8M2StG6-2">
          <mxGeometry relative="1" as="geometry" />
        </mxCell>
        <mxCell id="EGWmFNi2Vx7on8M2StG6-7" style="edgeStyle=orthogonalEdgeStyle;rounded=0;orthogonalLoop=1;jettySize=auto;html=1;exitX=0.5;exitY=1;exitDx=0;exitDy=0;entryX=0.5;entryY=0;entryDx=0;entryDy=0;" edge="1" parent="1" source="EGWmFNi2Vx7on8M2StG6-1" target="EGWmFNi2Vx7on8M2StG6-3">
          <mxGeometry relative="1" as="geometry" />
        </mxCell>
        <mxCell id="EGWmFNi2Vx7on8M2StG6-8" style="edgeStyle=orthogonalEdgeStyle;rounded=0;orthogonalLoop=1;jettySize=auto;html=1;exitX=0.5;exitY=1;exitDx=0;exitDy=0;entryX=0.5;entryY=0;entryDx=0;entryDy=0;" edge="1" parent="1" source="EGWmFNi2Vx7on8M2StG6-1" target="EGWmFNi2Vx7on8M2StG6-5">
          <mxGeometry relative="1" as="geometry" />
        </mxCell>
        <mxCell id="EGWmFNi2Vx7on8M2StG6-9" style="edgeStyle=orthogonalEdgeStyle;rounded=0;orthogonalLoop=1;jettySize=auto;html=1;exitX=0.5;exitY=1;exitDx=0;exitDy=0;entryX=0.5;entryY=0;entryDx=0;entryDy=0;" edge="1" parent="1" source="EGWmFNi2Vx7on8M2StG6-1" target="EGWmFNi2Vx7on8M2StG6-4">
          <mxGeometry relative="1" as="geometry" />
        </mxCell>
        <mxCell id="EGWmFNi2Vx7on8M2StG6-1" value="MemberGateway" style="rounded=0;whiteSpace=wrap;html=1;" vertex="1" parent="1">
          <mxGeometry x="470" y="250" width="120" height="60" as="geometry" />
        </mxCell>
        <mxCell id="EGWmFNi2Vx7on8M2StG6-2" value="MemberCreateService" style="rounded=0;whiteSpace=wrap;html=1;" vertex="1" parent="1">
          <mxGeometry x="90" y="425" width="140" height="60" as="geometry" />
        </mxCell>
        <mxCell id="EGWmFNi2Vx7on8M2StG6-3" value="MemberUpdateService" style="rounded=0;whiteSpace=wrap;html=1;" vertex="1" parent="1">
          <mxGeometry x="330" y="425" width="140" height="60" as="geometry" />
        </mxCell>
        <mxCell id="EGWmFNi2Vx7on8M2StG6-4" value="MemberDeleteService" style="rounded=0;whiteSpace=wrap;html=1;" vertex="1" parent="1">
          <mxGeometry x="570" y="425" width="140" height="60" as="geometry" />
        </mxCell>
        <mxCell id="EGWmFNi2Vx7on8M2StG6-5" value="MemberGetService" style="rounded=0;whiteSpace=wrap;html=1;" vertex="1" parent="1">
          <mxGeometry x="810" y="425" width="140" height="60" as="geometry" />
        </mxCell>
        <mxCell id="EGWmFNi2Vx7on8M2StG6-10" value="" style="endArrow=classic;html=1;" edge="1" parent="1">
          <mxGeometry width="50" height="50" relative="1" as="geometry">
            <mxPoint x="529.29" y="180" as="sourcePoint" />
            <mxPoint x="529.29" y="250" as="targetPoint" />
          </mxGeometry>
        </mxCell>
      </root>
    </mxGraphModel>
  </diagram>
</mxfile>
